<svg id="Capa_1" data-name="Capa 1" xmlns="http://www.w3.org/2000/svg" viewBox="0 0 38.31 38.56"><defs><style>.cls-1{fill:#1d1d1b;}.cls-1,.cls-2,.cls-3,.cls-4{fill-rule:evenodd;}.cls-2{fill:#ceceb8;}.cls-3{fill:#bd1622;}.cls-4{fill:#b1b28f;}</style></defs><path class="cls-1" d="M0,19.28A19.16,19.16,0,1,1,19.15,38.56,19.22,19.22,0,0,1,0,19.28Z"/><path class="cls-2" d="M5.92,19.28A13.24,13.24,0,1,1,19.15,32.61,13.29,13.29,0,0,1,5.92,19.28Z"/><path class="cls-3" d="M20.11,9.54c-.52-3.87-1.39-3.87-1.91,0a6.73,6.73,0,0,1-7.87,5.78c-3.8-.69-4.06.14-.59,1.84a6.82,6.82,0,0,1,3,9.35c-1.83,3.44-1.13,4,1.55,1.14a6.66,6.66,0,0,1,9.72,0c2.67,2.82,3.37,2.3,1.54-1.14a6.81,6.81,0,0,1,3-9.35c3.47-1.7,3.21-2.53-.59-1.84A6.73,6.73,0,0,1,20.11,9.54Z"/><path class="cls-4" d="M14.65,19.28a4.51,4.51,0,1,1,4.5,4.53A4.51,4.51,0,0,1,14.65,19.28Z"/></svg>