<svg id="Capa_1" data-name="Capa 1" xmlns="http://www.w3.org/2000/svg" viewBox="0 0 550 200"><defs><style>.cls-1{fill:#b0b256;}.cls-2{fill:#495e67;}.cls-3{fill:#014262;}.cls-10,.cls-11,.cls-12,.cls-3,.cls-9{fill-rule:evenodd;}.cls-4{fill:#0081ba;}.cls-5{fill:#f8b133;}.cls-5,.cls-8{stroke:#005980;}.cls-6,.cls-8{fill:#fff;}.cls-7{fill:#005980;}.cls-8{stroke-width:0.97px;}.cls-9{fill:#1d1d1b;}.cls-10{fill:#ceceb8;}.cls-11{fill:#bd1622;}.cls-12,.cls-13{fill:#b1b28f;}</style></defs><rect class="cls-1" y="-3.31" width="550" height="199.12"/><path class="cls-2" d="M550,176.6l-.74,0c-9.88,0-9.88-7.57-19.77-7.57s-9.89,7.57-19.77,7.57-9.89-7.57-19.77-7.57-9.88,7.57-19.77,7.57-9.88-7.57-19.77-7.57-9.88,7.57-19.77,7.57-9.88-7.57-19.76-7.57-9.89,7.57-19.78,7.57-9.88-7.57-19.76-7.57c-9.38,0-9.87,6.81-18.34,7.51-8.48-.69-9-7.51-18.34-7.51-9.89,0-9.89,7.57-19.78,7.57s-9.88-7.57-19.77-7.57-9.89,7.57-19.77,7.57-9.89-7.57-19.78-7.57-9.88,7.57-19.77,7.57-9.88-7.57-19.77-7.57-9.88,7.57-19.76,7.57-9.88-7.57-19.77-7.57-9.89,7.57-19.77,7.57-9.89-7.57-19.77-7.57-9.88,7.57-19.77,7.57-9.88-7.57-19.77-7.57-9.88,7.57-19.77,7.57-9.88-7.57-19.76-7.57S48,176.62,38.1,176.62s-9.88-7.57-19.76-7.57c-9.38,0-9.87,6.81-18.34,7.51V201H550Z"/><polyline class="cls-3" points="13.97 146.05 35.03 145.55 74.56 147.97 170.28 147.14 207.68 151.74 212.02 141.74 205.83 116.77 34.58 116.77"/><path class="cls-4" d="M86.63,129.2s-1.21-27.75-78.52-21.48l5.48,26s-6.7,8.95-1.83,12.53L35,145.55a20.21,20.21,0,0,1-.44-4.22,20.54,20.54,0,1,1,40,6.64l95.72-.83a20.53,20.53,0,1,1,37.4,4.6l5.56.74L212,141.74l-.6-9L217.5,114s9.13-4.47,9.13-14.32C226.63,99.66,137.76,96.08,86.63,129.2Z"/><path class="cls-5" d="M5.57,114.23c0,1.09,1.55,2,3.46,2s3.46-.89,3.46-2-1.55-2-3.46-2S5.57,113.15,5.57,114.23Z"/><path class="cls-5" d="M6.58,117.59c0,1.08,1.55,2,3.46,2s3.47-.89,3.47-2-1.55-2-3.47-2S6.58,116.5,6.58,117.59Z"/><path class="cls-5" d="M7.59,120.75c0,1.09,1.56,2,3.47,2s3.46-.88,3.46-2-1.55-2-3.46-2S7.59,119.67,7.59,120.75Z"/><path class="cls-6" d="M76.55,146.05h88.77s-7.52-7.37.36-11.05c0,0-9.67-1.06-6.81,6.84Z"/><path class="cls-4" d="M159.68,104.14,153,80l8.78.77s-61.74-41-122,29.66l28.61,7.17S60.46,78.18,147.5,80Z"/><path class="cls-6" d="M218.53,102.85s-71.4-4.37-131.13,28.5c0,0,60.52-28.5,125.39-26.76Z"/><path class="cls-6" d="M85.62,130.77s-1-18.91-45.1-21.82C40.52,109,76.12,112.73,85.62,130.77Z"/><path class="cls-7" d="M153.24,141s-.74-.9.25-5.37L73.55,141.4Z"/><path class="cls-8" d="M58,101c0,3.21,1.77,5.81,4,5.81s4-2.6,4-5.81-1.78-5.82-4-5.82S58,97.79,58,101Z"/><polyline class="cls-4" points="152.03 105.61 144.97 99.67 146.78 93.43 138.9 106.8 143.95 102.04 150.62 106.2"/><path class="cls-7" d="M113.16,110.27,111.43,96.7c1.22-2.08,4.85-.6,4.85-.6l3.58,13.47L135.07,108h.4c-25,4.45-48.48,19.6-48.48,19.6a17.16,17.16,0,0,0-11.72-13.37Z"/><path class="cls-4" d="M37.3,108S31,89.27,23.56,84.52c0,0,9.49,11,12.12,23.47Z"/><path class="cls-4" d="M22.75,84.52c0,1,.54,1.78,1.21,1.78s1.21-.8,1.21-1.78-.54-1.79-1.21-1.79S22.75,83.53,22.75,84.52Z"/><path class="cls-7" d="M215.49,113.85s-10.82-2.39-45.25,2.4c0,0,41.76-2.22,41.18.35S195,118.91,195,118.91s16,.59,14.76,3.33-6.71,2.1-6.71,2.1l7.53,3.89s3.82-8.94,4.88-14"/><path class="cls-7" d="M12.29,111.11s25.62-5.57,51.82,9.41c0,0-32.31-1.92-48.91,7.5,0,0,8.59-9.42,31.44-10.28,0,0-15.72-4.06-32.16,1.29,0,0,1.89-4.5,25-4.93C39.51,114.1,23.35,109.61,12.29,111.11Z"/><path class="cls-7" d="M155,78.47s-69.15-5.26-82.26,21C72.76,99.51,77.87,70.2,155,78.47Z"/><path class="cls-5" d="M223.15,106.43c2.42-3.57,3.16-5.71,1.54-5.75-1.89,0-5.71,2.91-8.12,6.48s-2.21,6.88-.64,6.48S220.73,110,223.15,106.43Z"/><path class="cls-9" d="M173,140.5a19.16,19.16,0,1,1,19.15,19.28A19.22,19.22,0,0,1,173,140.5Z"/><path class="cls-10" d="M178.89,140.5a13.24,13.24,0,1,1,13.23,13.33A13.29,13.29,0,0,1,178.89,140.5Z"/><path class="cls-11" d="M193.08,130.75c-.52-3.86-1.39-3.86-1.91,0a6.72,6.72,0,0,1-7.87,5.78c-3.8-.68-4.06.15-.59,1.85a6.81,6.81,0,0,1,3,9.35c-1.82,3.44-1.12,4,1.56,1.14a6.64,6.64,0,0,1,9.72,0c2.67,2.82,3.37,2.3,1.54-1.14a6.81,6.81,0,0,1,3-9.35c3.47-1.7,3.21-2.53-.59-1.85A6.72,6.72,0,0,1,193.08,130.75Z"/><path class="cls-12" d="M187.62,140.5a4.51,4.51,0,1,1,4.5,4.53A4.52,4.52,0,0,1,187.62,140.5Z"/><path class="cls-9" d="M38.87,141.4A19.16,19.16,0,1,1,58,160.68,19.21,19.21,0,0,1,38.87,141.4Z"/><path class="cls-10" d="M44.78,141.4A13.24,13.24,0,1,1,58,154.72,13.29,13.29,0,0,1,44.78,141.4Z"/><path class="cls-11" d="M59,131.65c-.53-3.87-1.39-3.87-1.92,0a6.7,6.7,0,0,1-7.86,5.78c-3.8-.69-4.07.14-.59,1.84a6.83,6.83,0,0,1,3,9.36c-1.82,3.44-1.12,4,1.55,1.14a6.64,6.64,0,0,1,9.72,0c2.67,2.81,3.37,2.3,1.55-1.14a6.83,6.83,0,0,1,3-9.36c3.48-1.7,3.21-2.53-.59-1.84A6.71,6.71,0,0,1,59,131.65Z"/><ellipse class="cls-13" cx="58.02" cy="141.4" rx="4.5" ry="4.53"/></svg>