<svg id="Capa_1" data-name="Capa 1" xmlns="http://www.w3.org/2000/svg" viewBox="0 0 221.06 91.79"><defs><style>.cls-1{fill:#919d0b;}.cls-1,.cls-10,.cls-11,.cls-12,.cls-9{fill-rule:evenodd;}.cls-2{fill:#c4d200;}.cls-3{fill:#f8b133;stroke:#706f6f;}.cls-4,.cls-7{fill:#fff;}.cls-5{fill:#aebb09;}.cls-6{fill:#b09905;}.cls-7{stroke:#88780c;}.cls-8{fill:#88780c;}.cls-9{fill:#1d1d1b;}.cls-10{fill:#ceceb8;}.cls-11{fill:#ededa2;}.cls-12,.cls-13{fill:#b1b28f;}</style></defs><polyline class="cls-1" points="8.4 77.16 29.46 76.66 68.99 79.08 164.71 78.25 202.11 82.85 206.46 72.85 200.26 47.88 29.01 47.88"/><path class="cls-2" d="M81.06,60.31S79.85,32.56,2.54,38.83L8,64.79s-6.7,8.95-1.83,12.53l23.27-.66A20.21,20.21,0,0,1,29,72.44a20.54,20.54,0,1,1,40,6.64l95.72-.83a20.53,20.53,0,1,1,37.4,4.6l5.56.74-1.22-10.74-.6-8.95,6.08-18.8s9.13-4.48,9.13-14.33C221.06,30.77,132.19,27.19,81.06,60.31Z"/><path class="cls-3" d="M0,45.35c0,1.08,1.55,2,3.46,2s3.46-.89,3.46-2-1.55-2-3.46-2S0,44.26,0,45.35Z"/><path class="cls-3" d="M1,48.7c0,1.09,1.55,2,3.46,2s3.47-.88,3.47-2-1.55-2-3.47-2S1,47.61,1,48.7Z"/><path class="cls-3" d="M2,51.87c0,1.08,1.55,2,3.46,2S9,53,9,51.87s-1.55-2-3.46-2S2,50.78,2,51.87Z"/><path class="cls-4" d="M71,77.16h88.77s-7.52-7.37.36-11c0,0-9.67-1.06-6.81,6.84Z"/><path class="cls-5" d="M154.11,35.25l-6.7-24.17,8.78.77s-61.74-41-122,29.67L62.8,48.68s-7.91-39.39,79.13-37.6Z"/><path class="cls-4" d="M213,34s-71.4-4.37-131.13,28.5c0,0,60.52-28.5,125.39-26.76Z"/><path class="cls-4" d="M80.05,61.88S79.06,43,35,40.07C35,40.07,70.56,43.85,80.05,61.88Z"/><path class="cls-6" d="M147.67,72.06s-.74-.89.25-5.37L68,72.51Z"/><path class="cls-7" d="M52.45,32.12c0,3.21,1.78,5.81,4,5.81s4-2.6,4-5.81-1.78-5.82-4-5.82S52.45,28.9,52.45,32.12Z"/><polyline class="cls-2" points="146.47 36.72 139.4 30.78 141.21 24.54 133.34 37.91 138.38 33.16 145.05 37.31"/><path class="cls-8" d="M107.59,41.38l-1.73-13.57c1.22-2.08,4.85-.6,4.85-.6l3.58,13.47L129.5,39.1h.4c-25.05,4.45-48.48,19.6-48.48,19.6A17.13,17.13,0,0,0,69.7,45.34Z"/><path class="cls-2" d="M31.73,39.1S25.46,20.38,18,15.63c0,0,9.5,11,12.12,23.47Z"/><path class="cls-5" d="M17.18,15.63c0,1,.54,1.78,1.21,1.78s1.22-.8,1.22-1.78-.55-1.78-1.22-1.78S17.18,14.64,17.18,15.63Z"/><path class="cls-6" d="M209.92,45s-10.82-2.4-45.25,2.39c0,0,41.76-2.22,41.18.35S189.46,50,189.46,50s16,.59,14.76,3.33-6.71,2.1-6.71,2.1L205,59.34s3.83-8.93,4.88-14"/><path class="cls-6" d="M6.72,42.22s25.62-5.57,51.82,9.42c0,0-32.31-1.93-48.91,7.49,0,0,8.59-9.42,31.44-10.28,0,0-15.72-4.06-32.16,1.29,0,0,1.89-4.5,25-4.92C33.94,45.22,17.79,40.72,6.72,42.22Z"/><path class="cls-8" d="M149.45,9.58s-69.15-5.26-82.26,21C67.19,30.62,72.3,1.31,149.45,9.58Z"/><path class="cls-3" d="M217.58,37.54c2.42-3.57,3.16-5.71,1.54-5.75-1.89,0-5.71,2.91-8.12,6.48s-2.21,6.88-.64,6.48S215.16,41.12,217.58,37.54Z"/><path class="cls-9" d="M167.4,71.61a19.16,19.16,0,1,1,19.15,19.28A19.22,19.22,0,0,1,167.4,71.61Z"/><path class="cls-10" d="M173.32,71.61a13.24,13.24,0,1,1,13.23,13.33A13.29,13.29,0,0,1,173.32,71.61Z"/><path class="cls-11" d="M187.51,61.86c-.52-3.86-1.38-3.86-1.91,0a6.73,6.73,0,0,1-7.87,5.79c-3.8-.69-4.06.14-.59,1.84a6.82,6.82,0,0,1,3,9.35c-1.83,3.44-1.13,4,1.55,1.14a6.66,6.66,0,0,1,9.72,0c2.67,2.82,3.37,2.3,1.54-1.14a6.82,6.82,0,0,1,3-9.35c3.47-1.7,3.21-2.53-.59-1.84A6.73,6.73,0,0,1,187.51,61.86Z"/><path class="cls-12" d="M182.05,71.61a4.51,4.51,0,1,1,4.5,4.53A4.53,4.53,0,0,1,182.05,71.61Z"/><path class="cls-9" d="M33.3,72.51A19.16,19.16,0,1,1,52.45,91.79,19.21,19.21,0,0,1,33.3,72.51Z"/><path class="cls-10" d="M39.21,72.51A13.24,13.24,0,1,1,52.45,85.83,13.29,13.29,0,0,1,39.21,72.51Z"/><path class="cls-11" d="M53.41,62.76c-.53-3.87-1.39-3.87-1.92,0a6.7,6.7,0,0,1-7.86,5.78c-3.8-.69-4.07.14-.59,1.85a6.82,6.82,0,0,1,3,9.35c-1.82,3.44-1.12,4,1.55,1.14a6.64,6.64,0,0,1,9.72,0c2.67,2.81,3.37,2.3,1.55-1.14a6.82,6.82,0,0,1,3-9.35c3.48-1.71,3.21-2.54-.59-1.85A6.71,6.71,0,0,1,53.41,62.76Z"/><ellipse class="cls-13" cx="52.45" cy="72.51" rx="4.5" ry="4.53"/></svg>